# xmcd CD database file
# Copyright (C) 1993-1998 Ti Kan
# 
# Track frame offsets:
#     183
#     8298
#     18918
#     27530
#     40960
#     50390
#     58363
#     65500
#     77800
#     90893
#     102648
#     118733
#     130328
#     141163
#     153700
#     164885
#     177778
#     188205
#     195143
#     204065
#     216940
#     229445
#     237485
#     246068
#     258890
#     270845
#     282900
#     291873
#     303175
# 
# Disc length: 4204 seconds
# 
# Revision: 1
# Processed by: cddbd v1.4b41PL1 Copyright (c) Steve Scherf et al.
# Submitted via: DiscPlay 4.0.4
# 
DISCID=9b106a1d
DTITLE=The Oak Ridge Boys - Gospel Country
DYEAR=1900
DGENRE=
TTITLE0=Someday
TTITLE1=My Heavenly Father
TTITLE2=Day Of Rejoicing
TTITLE3=Lead Me To Calvary
TTITLE4=I Know My Savior Is There
TTITLE5=River Of Life
TTITLE6=I Know
TTITLE7=Without God
TTITLE8=The Old Country Church
TTITLE9=No One Cared So Much
TTITLE10=Farther Along
TTITLE11=God's Hands
TTITLE12=It's Different Now
TTITLE13=Jesus, The One Who Never Fails
TTITLE14=I'll Wake Up On The Other Side
TTITLE15=Thank God, I'm Reborn
TTITLE16=Wonderful Savior]
TTITLE17=Each Step I Take
TTITLE18=He Means All The World To Me
TTITLE19=Dear Jesus Abide With Me
TTITLE20=I Want To See Jesus Most Of All
TTITLE21=I Don't Mind My Journey
TTITLE22=Unworthy Of His Love
TTITLE23=You'll Never Walk Alone
TTITLE24=Little Is Much
TTITLE25=Time Has Made A Change In Me
TTITLE26=I'll Live In Glory
TTITLE27=Walk With Me
TTITLE28=On The Sunny Banks
EXTD=
EXTT0=
EXTT1=
EXTT2=
EXTT3=
EXTT4=
EXTT5=
EXTT6=
EXTT7=
EXTT8=
EXTT9=
EXTT10=
EXTT11=
EXTT12=
EXTT13=
EXTT14=
EXTT15=
EXTT16=
EXTT17=
EXTT18=
EXTT19=
EXTT20=
EXTT21=
EXTT22=
EXTT23=
EXTT24=
EXTT25=
EXTT26=
EXTT27=
EXTT28=
PLAYORDER=
